<svg width="32" height="32" viewBox="0 0 32 32" fill="none" xmlns="http://www.w3.org/2000/svg">
<rect width="32" height="32" rx="16" fill="url(#paint0_linear_203_223)"/>
<path d="M7 11.25C7 10.6533 7.23705 10.081 7.65901 9.65901C8.08097 9.23705 8.65326 9 9.25 9H22.75C23.3467 9 23.919 9.23705 24.341 9.65901C24.7629 10.081 25 10.6533 25 11.25V20.25C25 20.8467 24.7629 21.419 24.341 21.841C23.919 22.2629 23.3467 22.5 22.75 22.5H9.25C8.65326 22.5 8.08097 22.2629 7.65901 21.841C7.23705 21.419 7 20.8467 7 20.25V11.25ZM9.25 10.125C8.95163 10.125 8.66548 10.2435 8.4545 10.4545C8.24353 10.6655 8.125 10.9516 8.125 11.25V11.4941L16 16.2191L23.875 11.4941V11.25C23.875 10.9516 23.7565 10.6655 23.5455 10.4545C23.3345 10.2435 23.0484 10.125 22.75 10.125H9.25ZM23.875 12.8059L18.5785 15.984L23.875 19.2431V12.8059ZM23.8367 20.5414L17.4918 16.6365L16 17.5309L14.5082 16.6365L8.16325 20.5403C8.22718 20.7796 8.36836 20.9912 8.56486 21.1422C8.76137 21.2931 9.00221 21.375 9.25 21.375H22.75C22.9976 21.375 23.2384 21.2934 23.4349 21.1426C23.6313 20.9919 23.7726 20.7806 23.8367 20.5414V20.5414ZM8.125 19.2431L13.4215 15.984L8.125 12.8059V19.2431Z" fill="#FAFAFA"/>
<defs>
<linearGradient id="paint0_linear_203_223" x1="-4.17232e-07" y1="32" x2="32.7235" y2="31.2422" gradientUnits="userSpaceOnUse">
<stop stop-color="#E24534" stop-opacity="0.7"/>
<stop offset="1" stop-color="#ED6846" stop-opacity="0.7"/>
</linearGradient>
</defs>
</svg>
