<svg width="32" height="32" viewBox="0 0 32 32" fill="none" xmlns="http://www.w3.org/2000/svg">
<rect width="32" height="32" rx="16" fill="url(#paint0_linear_203_217)"/>
<path d="M16 7C13.5576 7 13.2505 7.01125 12.2909 7.054C11.3313 7.099 10.6776 7.24975 10.105 7.4725C9.50436 7.69842 8.9603 8.0528 8.51088 8.51088C8.05309 8.96053 7.69875 9.50452 7.4725 10.105C7.24975 10.6765 7.09788 11.3312 7.054 12.2875C7.01125 13.2494 7 13.5554 7 16.0011C7 18.4446 7.01125 18.7506 7.054 19.7103C7.099 20.6688 7.24975 21.3224 7.4725 21.895C7.70312 22.4867 8.01025 22.9885 8.51088 23.4891C9.01038 23.9897 9.51213 24.298 10.1039 24.5275C10.6776 24.7502 11.3301 24.9021 12.2886 24.946C13.2494 24.9887 13.5554 25 16 25C18.4446 25 18.7495 24.9887 19.7103 24.946C20.6676 24.901 21.3235 24.7502 21.8961 24.5275C22.4964 24.3015 23.04 23.9471 23.4891 23.4891C23.9897 22.9885 24.2969 22.4867 24.5275 21.895C24.7491 21.3224 24.901 20.6688 24.946 19.7103C24.9887 18.7506 25 18.4446 25 16C25 13.5554 24.9887 13.2494 24.946 12.2886C24.901 11.3313 24.7491 10.6765 24.5275 10.105C24.3013 9.5045 23.9469 8.96051 23.4891 8.51088C23.0398 8.05264 22.4957 7.69823 21.895 7.4725C21.3212 7.24975 20.6665 7.09788 19.7091 7.054C18.7484 7.01125 18.4435 7 15.9978 7H16.0011H16ZM15.1934 8.62225H16.0011C18.4041 8.62225 18.6887 8.63013 19.6371 8.674C20.5146 8.71338 20.9916 8.86075 21.3089 8.98338C21.7285 9.1465 22.0289 9.34225 22.3439 9.65725C22.6589 9.97225 22.8535 10.2715 23.0166 10.6923C23.1404 11.0084 23.2866 11.4854 23.326 12.3629C23.3699 13.3113 23.3789 13.5959 23.3789 15.9978C23.3789 18.3996 23.3699 18.6854 23.326 19.6337C23.2866 20.5112 23.1393 20.9871 23.0166 21.3044C22.8723 21.6952 22.642 22.0485 22.3427 22.3382C22.0277 22.6532 21.7285 22.8479 21.3078 23.011C20.9928 23.1348 20.5157 23.281 19.6371 23.3215C18.6887 23.3643 18.4041 23.3744 16.0011 23.3744C13.5981 23.3744 13.3124 23.3643 12.364 23.3215C11.4865 23.281 11.0106 23.1348 10.6934 23.011C10.3024 22.8669 9.94877 22.637 9.65837 22.3382C9.35884 22.048 9.12819 21.6944 8.98338 21.3032C8.86075 20.9871 8.71338 20.5101 8.674 19.6326C8.63125 18.6843 8.62225 18.3996 8.62225 15.9955C8.62225 13.5925 8.63125 13.309 8.674 12.3606C8.7145 11.4831 8.86075 11.0061 8.9845 10.6889C9.14763 10.2693 9.34337 9.96887 9.65837 9.65387C9.97337 9.33887 10.2726 9.14425 10.6934 8.98113C11.0106 8.85738 11.4865 8.71113 12.364 8.67063C13.1943 8.63238 13.516 8.62113 15.1934 8.62V8.62225V8.62225ZM20.8049 10.1162C20.663 10.1162 20.5226 10.1442 20.3916 10.1985C20.2605 10.2527 20.1415 10.3323 20.0412 10.4326C19.9409 10.5329 19.8614 10.6519 19.8071 10.783C19.7528 10.914 19.7249 11.0544 19.7249 11.1963C19.7249 11.3381 19.7528 11.4785 19.8071 11.6095C19.8614 11.7406 19.9409 11.8596 20.0412 11.9599C20.1415 12.0602 20.2605 12.1398 20.3916 12.194C20.5226 12.2483 20.663 12.2763 20.8049 12.2763C21.0913 12.2763 21.366 12.1625 21.5686 11.9599C21.7711 11.7574 21.8849 11.4827 21.8849 11.1963C21.8849 10.9098 21.7711 10.6351 21.5686 10.4326C21.366 10.23 21.0913 10.1162 20.8049 10.1162V10.1162ZM16.0011 11.3785C15.3881 11.3689 14.7793 11.4814 14.2101 11.7094C13.6409 11.9374 13.1228 12.2763 12.6859 12.7065C12.249 13.1366 11.902 13.6494 11.6652 14.2149C11.4284 14.7804 11.3064 15.3874 11.3064 16.0006C11.3064 16.6137 11.4284 17.2207 11.6652 17.7862C11.902 18.3517 12.249 18.8645 12.6859 19.2946C13.1228 19.7248 13.6409 20.0637 14.2101 20.2917C14.7793 20.5197 15.3881 20.6322 16.0011 20.6226C17.2145 20.6037 18.3717 20.1084 19.2231 19.2437C20.0745 18.3789 20.5516 17.2141 20.5516 16.0006C20.5516 14.7871 20.0745 13.6222 19.2231 12.7575C18.3717 11.8927 17.2145 11.3974 16.0011 11.3785V11.3785ZM16.0011 12.9996C16.7969 12.9996 17.56 13.3157 18.1227 13.8784C18.6854 14.4411 19.0015 15.2043 19.0015 16C19.0015 16.7957 18.6854 17.5589 18.1227 18.1216C17.56 18.6843 16.7969 19.0004 16.0011 19.0004C15.2054 19.0004 14.4422 18.6843 13.8795 18.1216C13.3169 17.5589 13.0008 16.7957 13.0008 16C13.0008 15.2043 13.3169 14.4411 13.8795 13.8784C14.4422 13.3157 15.2054 12.9996 16.0011 12.9996V12.9996Z" fill="#FAFAFA"/>
<defs>
<linearGradient id="paint0_linear_203_217" x1="-4.17232e-07" y1="32" x2="32.7235" y2="31.2422" gradientUnits="userSpaceOnUse">
<stop stop-color="#E24534" stop-opacity="0.7"/>
<stop offset="1" stop-color="#ED6846" stop-opacity="0.7"/>
</linearGradient>
</defs>
</svg>
