<svg width="32" height="32" viewBox="0 0 32 32" fill="none" xmlns="http://www.w3.org/2000/svg">
<rect width="32" height="32" rx="16" fill="url(#paint0_linear_203_215)"/>
<path d="M11.1112 8.49428C11.0447 8.40886 10.9609 8.33854 10.8652 8.28799C10.7696 8.23745 10.6642 8.20785 10.5562 8.20114C10.4482 8.19444 10.34 8.21079 10.2388 8.24912C10.1377 8.28744 10.0458 8.34685 9.96931 8.42341L8.8061 9.58775C8.26274 10.1322 8.0625 10.9028 8.29986 11.5789C9.28504 14.3774 10.8876 16.9181 12.9887 19.0127C15.0833 21.1138 17.6241 22.7163 20.4225 23.7016C21.0986 23.9389 21.8692 23.7387 22.4137 23.1953L23.5769 22.0321C23.6534 21.9556 23.7129 21.8638 23.7512 21.7626C23.7895 21.6614 23.8059 21.5532 23.7992 21.4452C23.7925 21.3372 23.7628 21.2319 23.7123 21.1362C23.6618 21.0405 23.5914 20.9567 23.506 20.8903L20.9107 18.8721C20.8195 18.8013 20.7133 18.7522 20.6003 18.7284C20.4872 18.7046 20.3703 18.7068 20.2582 18.7348L17.7946 19.3502C17.4657 19.4324 17.1212 19.428 16.7945 19.3375C16.4679 19.247 16.1702 19.0735 15.9305 18.8338L13.1676 16.0698C12.9277 15.8302 12.754 15.5326 12.6633 15.2059C12.5726 14.8793 12.5681 14.5347 12.6501 14.2057L13.2666 11.7421C13.2946 11.63 13.2968 11.5131 13.273 11.4C13.2493 11.287 13.2001 11.1808 13.1293 11.0896L11.1112 8.49428ZM9.11996 7.57519C9.31683 7.37826 9.55333 7.22547 9.81377 7.12696C10.0742 7.02845 10.3526 6.98647 10.6305 7.00381C10.9085 7.02115 11.1795 7.09742 11.4257 7.22755C11.6718 7.35768 11.8875 7.53869 12.0584 7.75856L14.0766 10.3527C14.4467 10.8286 14.5772 11.4484 14.4309 12.0334L13.8156 14.4971C13.7838 14.6247 13.7855 14.7584 13.8206 14.8851C13.8556 15.0119 13.9229 15.1274 14.0158 15.2204L16.7798 17.9845C16.873 18.0776 16.9887 18.145 17.1157 18.18C17.2427 18.2151 17.3766 18.2168 17.5043 18.1847L19.9669 17.5694C20.2556 17.4972 20.5569 17.4916 20.848 17.553C21.1392 17.6144 21.4126 17.7412 21.6476 17.9237L24.2417 19.9419C25.1743 20.6675 25.2598 22.0456 24.4251 22.8792L23.2619 24.0424C22.4294 24.8749 21.1852 25.2405 20.0254 24.8321C17.0568 23.7876 14.3615 22.0882 12.1394 19.8598C9.91114 17.638 8.21168 14.9431 7.16702 11.9749C6.75979 10.8162 7.1254 9.57088 7.95787 8.7384L9.12109 7.57519H9.11996Z" fill="#FAFAFA"/>
<defs>
<linearGradient id="paint0_linear_203_215" x1="-4.17232e-07" y1="32" x2="32.7235" y2="31.2422" gradientUnits="userSpaceOnUse">
<stop stop-color="#E24534" stop-opacity="0.7"/>
<stop offset="1" stop-color="#ED6846" stop-opacity="0.7"/>
</linearGradient>
</defs>
</svg>
