<svg width="12" height="11" viewBox="0 0 12 11" fill="none" xmlns="http://www.w3.org/2000/svg">
<path fill-rule="evenodd" clip-rule="evenodd" d="M0 5.5C0 5.29165 0.079009 5.09184 0.219646 4.94452C0.360282 4.79719 0.551026 4.71443 0.749916 4.71443H9.43845L6.21831 1.34275C6.07749 1.19524 5.99838 0.995175 5.99838 0.786565C5.99838 0.577955 6.07749 0.377889 6.21831 0.23038C6.35912 0.0828702 6.5501 0 6.74925 0C6.94839 0 7.13937 0.0828702 7.28019 0.23038L11.7797 4.94381C11.8495 5.01679 11.9049 5.10348 11.9427 5.19892C11.9805 5.29436 12 5.39667 12 5.5C12 5.60333 11.9805 5.70564 11.9427 5.80108C11.9049 5.89652 11.8495 5.98321 11.7797 6.05619L7.28019 10.7696C7.13937 10.9171 6.94839 11 6.74925 11C6.5501 11 6.35912 10.9171 6.21831 10.7696C6.07749 10.6221 5.99838 10.422 5.99838 10.2134C5.99838 10.0048 6.07749 9.80476 6.21831 9.65725L9.43845 6.28557H0.749916C0.551026 6.28557 0.360282 6.20281 0.219646 6.05548C0.079009 5.90816 0 5.70835 0 5.5Z" fill="#E2E2E2"/>
</svg>
