<svg width="24" height="24" viewBox="0 0 24 24" fill="none" xmlns="http://www.w3.org/2000/svg">
<path d="M13.4544 11.5741L13.0287 11.9989L13.4544 12.4236L19.1822 18.1389L19.1834 18.1401C19.2521 18.2082 19.3065 18.2892 19.3437 18.3784C19.3809 18.4676 19.4 18.5634 19.4 18.66C19.4 18.7567 19.3809 18.8524 19.3437 18.9417C19.3065 19.0309 19.2521 19.1119 19.1834 19.18L19.18 19.1834C19.1119 19.2521 19.0309 19.3065 18.9417 19.3437C18.8525 19.3809 18.7569 19.4 18.6602 19.4C18.5636 19.4 18.4679 19.3809 18.3787 19.3437C18.2895 19.3065 18.2086 19.2521 18.1405 19.1834L18.1393 19.1822L12.4248 13.4536L12 13.0277L11.5752 13.4536L5.86073 19.1822L5.85949 19.1834C5.79143 19.2521 5.71047 19.3065 5.62127 19.3437C5.53207 19.3809 5.4364 19.4 5.33977 19.4C5.24314 19.4 5.14747 19.3809 5.05827 19.3437C4.96907 19.3065 4.88811 19.2521 4.82005 19.1834L4.81657 19.18C4.74795 19.1119 4.69348 19.0309 4.65631 18.9417C4.61914 18.8524 4.6 18.7567 4.6 18.66C4.6 18.5634 4.61914 18.4676 4.65631 18.3784C4.69348 18.2892 4.74795 18.2082 4.81657 18.1401L4.81782 18.1389L10.5456 12.4236L10.9713 11.9989L10.5456 11.5741L4.81831 5.85934C4.81824 5.85927 4.81816 5.85919 4.81809 5.85912C4.67991 5.7208 4.60227 5.53326 4.60227 5.33769C4.60227 5.14201 4.67999 4.95437 4.81831 4.81603C4.95663 4.6777 5.1442 4.6 5.33977 4.6C5.53525 4.6 5.72274 4.67763 5.86104 4.81585C5.8611 4.81591 5.86117 4.81597 5.86123 4.81603L11.5752 10.5442L12 10.97L12.4248 10.5442L18.1388 4.81603C18.1388 4.81602 18.1388 4.81601 18.1388 4.816C18.2771 4.67769 18.4647 4.6 18.6602 4.6C18.8558 4.6 19.0434 4.6777 19.1817 4.81603C19.32 4.95437 19.3977 5.14201 19.3977 5.33769C19.3977 5.53324 19.3201 5.72077 19.1819 5.85908C19.1819 5.85917 19.1818 5.85925 19.1817 5.85934L13.4544 11.5741Z" stroke="#333333" stroke-width="1.2"/>
</svg>
